<?xml version="1.0" standalone="no"?>
<svg xmlns:xlink="http://www.w3.org/1999/xlink" id="wave" style="transform:rotate(0deg); transition: 0.3s" viewBox="0 0 1440 100" version="1.1" xmlns="http://www.w3.org/2000/svg"><defs><linearGradient id="sw-gradient-0" x1="0" x2="0" y1="1" y2="0"><stop stop-color="rgba(241, 242, 247, 1)" offset="0%"/><stop stop-color="rgba(255, 255, 255, 1)" offset="100%"/></linearGradient></defs><path style="transform:translate(0, 0px); opacity:1" fill="url(#sw-gradient-0)" d="M0,50L10,41.7C20,33,40,17,60,18.3C80,20,100,40,120,43.3C140,47,160,33,180,28.3C200,23,220,27,240,25C260,23,280,17,300,11.7C320,7,340,3,360,13.3C380,23,400,47,420,50C440,53,460,37,480,26.7C500,17,520,13,540,13.3C560,13,580,17,600,28.3C620,40,640,60,660,66.7C680,73,700,67,720,61.7C740,57,760,53,780,43.3C800,33,820,17,840,8.3C860,0,880,0,900,15C920,30,940,60,960,71.7C980,83,1000,77,1020,63.3C1040,50,1060,30,1080,30C1100,30,1120,50,1140,61.7C1160,73,1180,77,1200,73.3C1220,70,1240,60,1260,61.7C1280,63,1300,77,1320,75C1340,73,1360,57,1380,48.3C1400,40,1420,40,1430,40L1440,40L1440,100L1430,100C1420,100,1400,100,1380,100C1360,100,1340,100,1320,100C1300,100,1280,100,1260,100C1240,100,1220,100,1200,100C1180,100,1160,100,1140,100C1120,100,1100,100,1080,100C1060,100,1040,100,1020,100C1000,100,980,100,960,100C940,100,920,100,900,100C880,100,860,100,840,100C820,100,800,100,780,100C760,100,740,100,720,100C700,100,680,100,660,100C640,100,620,100,600,100C580,100,560,100,540,100C520,100,500,100,480,100C460,100,440,100,420,100C400,100,380,100,360,100C340,100,320,100,300,100C280,100,260,100,240,100C220,100,200,100,180,100C160,100,140,100,120,100C100,100,80,100,60,100C40,100,20,100,10,100L0,100Z"/><defs><linearGradient id="sw-gradient-1" x1="0" x2="0" y1="1" y2="0"><stop stop-color="rgba(241, 242, 247, 1)" offset="0%"/><stop stop-color="rgba(241, 242, 247, 1)" offset="100%"/></linearGradient></defs><path style="transform:translate(0, 50px); opacity:0.9" fill="url(#sw-gradient-1)" d="M0,40L10,43.3C20,47,40,53,60,46.7C80,40,100,20,120,23.3C140,27,160,53,180,55C200,57,220,33,240,21.7C260,10,280,10,300,23.3C320,37,340,63,360,76.7C380,90,400,90,420,80C440,70,460,50,480,48.3C500,47,520,63,540,71.7C560,80,580,80,600,73.3C620,67,640,53,660,50C680,47,700,53,720,53.3C740,53,760,47,780,43.3C800,40,820,40,840,45C860,50,880,60,900,58.3C920,57,940,43,960,41.7C980,40,1000,50,1020,51.7C1040,53,1060,47,1080,48.3C1100,50,1120,60,1140,68.3C1160,77,1180,83,1200,78.3C1220,73,1240,57,1260,45C1280,33,1300,27,1320,26.7C1340,27,1360,33,1380,43.3C1400,53,1420,67,1430,73.3L1440,80L1440,100L1430,100C1420,100,1400,100,1380,100C1360,100,1340,100,1320,100C1300,100,1280,100,1260,100C1240,100,1220,100,1200,100C1180,100,1160,100,1140,100C1120,100,1100,100,1080,100C1060,100,1040,100,1020,100C1000,100,980,100,960,100C940,100,920,100,900,100C880,100,860,100,840,100C820,100,800,100,780,100C760,100,740,100,720,100C700,100,680,100,660,100C640,100,620,100,600,100C580,100,560,100,540,100C520,100,500,100,480,100C460,100,440,100,420,100C400,100,380,100,360,100C340,100,320,100,300,100C280,100,260,100,240,100C220,100,200,100,180,100C160,100,140,100,120,100C100,100,80,100,60,100C40,100,20,100,10,100L0,100Z"/></svg>